<?xml version="1.0" encoding="UTF-8" standalone="no" ?>
<!DOCTYPE svg PUBLIC "-//W3C//DTD SVG 1.1//EN" "http://www.w3.org/Graphics/SVG/1.1/DTD/svg11.dtd">
<svg xmlns="http://www.w3.org/2000/svg" xmlns:xlink="http://www.w3.org/1999/xlink" version="1.1" width="1000" height="400" viewBox="0 0 1000 400" xml:space="preserve">
<desc>Created with Fabric.js 3.6.6</desc>
<defs>
</defs>
<g transform="matrix(3.2 0 0 3.2 488.69 220.56)"  >
<g style=""   >
		<g transform="matrix(1.33 0 0 1.33 121.04 -15.72)" clip-path="url(#CLIPPATH_16)"  >
<clipPath id="CLIPPATH_16" >
	<path transform="matrix(1 0 0 1 2.84 -3.14) translate(-281.14, -172.6)" clip-path="url(#undefined)" d="M 263.527344 168.453125 L 278.398438 154.707031 L 298.761719 176.738281 L 283.890625 190.484375 Z M 263.527344 168.453125" stroke-linecap="round" />
</clipPath>
<path style="stroke: none; stroke-width: 1; stroke-dasharray: none; stroke-linecap: butt; stroke-dashoffset: 0; stroke-linejoin: miter; stroke-miterlimit: 4; fill: rgb(24,203,150); fill-rule: nonzero; opacity: 1;"  transform=" translate(-278.31, -175.73)" d="M 288.734375 165.996094 L 270.710938 165.191406 C 267.226562 165.039062 266.640625 171.820312 270.765625 171.933594 L 281.980469 172.234375 L 281.125 183.519531 C 280.863281 186.957031 287.566406 187.320312 287.757812 183.828125 Z M 288.734375 165.996094" stroke-linecap="round" />
</g>
		<g transform="matrix(1.33 0 0 1.33 135.27 -28.87)" clip-path="url(#CLIPPATH_17)"  >
<clipPath id="CLIPPATH_17" >
	<path transform="matrix(1 0 0 1 2.84 -3.14) translate(-291.81, -162.73)" clip-path="url(#undefined)" d="M 274.199219 158.589844 L 289.070312 144.84375 L 309.429688 166.875 L 294.558594 180.621094 Z M 274.199219 158.589844" stroke-linecap="round" />
</clipPath>
<path style="stroke: none; stroke-width: 1; stroke-dasharray: none; stroke-linecap: butt; stroke-dashoffset: 0; stroke-linejoin: miter; stroke-miterlimit: 4; fill: rgb(24,203,150); fill-rule: nonzero; opacity: 1;"  transform=" translate(-288.98, -165.87)" d="M 299.40625 156.132812 L 281.378906 155.332031 C 277.898438 155.175781 277.3125 161.957031 281.4375 162.070312 L 292.652344 162.375 L 291.792969 173.660156 C 291.535156 177.09375 298.234375 177.457031 298.425781 173.964844 Z M 299.40625 156.132812" stroke-linecap="round" />
</g>
		<g transform="matrix(1.33 0 0 1.33 -125.46 4.87)" clip-path="url(#CLIPPATH_18)"  >
<clipPath id="CLIPPATH_18" >
	<rect transform="matrix(1 0 0 1 79.56 -5.19)" x="-94" y="-33" rx="0" ry="0" width="188" height="66" />
</clipPath>
<path style="stroke: none; stroke-width: 1; stroke-dasharray: none; stroke-linecap: butt; stroke-dashoffset: 0; stroke-linejoin: miter; stroke-miterlimit: 4; fill: rgb(255,255,255); fill-rule: nonzero; opacity: 1;"  transform=" translate(-13.78, 13.66)" d="M 21.1875 -19.953125 C 20.363281 -20.921875 19.398438 -21.601562 18.296875 -22 C 17.191406 -22.394531 16.101562 -22.59375 15.03125 -22.59375 C 12.664062 -22.59375 10.765625 -21.773438 9.328125 -20.140625 C 7.898438 -18.515625 7.1875 -16.328125 7.1875 -13.578125 C 7.1875 -10.929688 7.925781 -8.800781 9.40625 -7.1875 C 10.894531 -5.582031 12.835938 -4.78125 15.234375 -4.78125 C 16.304688 -4.78125 17.394531 -4.96875 18.5 -5.34375 C 19.613281 -5.71875 20.601562 -6.332031 21.46875 -7.1875 C 22.25 -7.976562 23.023438 -8.390625 23.796875 -8.421875 C 24.566406 -8.460938 25.203125 -8.25 25.703125 -7.78125 C 26.203125 -7.3125 26.476562 -6.707031 26.53125 -5.96875 C 26.582031 -5.238281 26.269531 -4.5 25.59375 -3.75 C 24.195312 -2.21875 22.59375 -1.117188 20.78125 -0.453125 C 18.976562 0.203125 17.113281 0.53125 15.1875 0.53125 C 12.363281 0.53125 9.882812 -0.0546875 7.75 -1.234375 C 5.625 -2.410156 3.96875 -4.054688 2.78125 -6.171875 C 1.601562 -8.285156 1.015625 -10.734375 1.015625 -13.515625 C 1.015625 -16.421875 1.59375 -18.945312 2.75 -21.09375 C 3.914062 -23.238281 5.554688 -24.898438 7.671875 -26.078125 C 9.785156 -27.253906 12.238281 -27.84375 15.03125 -27.84375 C 16.988281 -27.84375 18.816406 -27.535156 20.515625 -26.921875 C 22.222656 -26.316406 23.789062 -25.175781 25.21875 -23.5 C 25.863281 -22.75 26.140625 -22.015625 26.046875 -21.296875 C 25.960938 -20.585938 25.648438 -20 25.109375 -19.53125 C 24.578125 -19.0625 23.941406 -18.835938 23.203125 -18.859375 C 22.472656 -18.878906 21.800781 -19.242188 21.1875 -19.953125 Z M 21.1875 -19.953125" stroke-linecap="round" />
</g>
		<g transform="matrix(1.33 0 0 1.33 -101.45 -0.08)" clip-path="url(#CLIPPATH_19)"  >
<clipPath id="CLIPPATH_19" >
	<rect transform="matrix(1 0 0 1 61.58 -1.49)" x="-94" y="-33" rx="0" ry="0" width="188" height="66" />
</clipPath>
<path style="stroke: none; stroke-width: 1; stroke-dasharray: none; stroke-linecap: butt; stroke-dashoffset: 0; stroke-linejoin: miter; stroke-miterlimit: 4; fill: rgb(255,255,255); fill-rule: nonzero; opacity: 1;"  transform=" translate(-4.94, 17.36)" d="M 8.046875 -31.328125 C 8.046875 -30.441406 7.710938 -29.773438 7.046875 -29.328125 C 6.390625 -28.878906 5.6875 -28.65625 4.9375 -28.65625 C 4.144531 -28.65625 3.425781 -28.878906 2.78125 -29.328125 C 2.144531 -29.773438 1.828125 -30.441406 1.828125 -31.328125 L 1.828125 -32.03125 C 1.828125 -32.957031 2.144531 -33.632812 2.78125 -34.0625 C 3.425781 -34.5 4.144531 -34.71875 4.9375 -34.71875 C 5.6875 -34.71875 6.390625 -34.5 7.046875 -34.0625 C 7.710938 -33.632812 8.046875 -32.957031 8.046875 -32.03125 Z M 1.875 -24.6875 C 1.875 -25.539062 2.203125 -26.191406 2.859375 -26.640625 C 3.523438 -27.085938 4.21875 -27.3125 4.9375 -27.3125 C 5.6875 -27.3125 6.382812 -27.085938 7.03125 -26.640625 C 7.675781 -26.191406 8 -25.554688 8 -24.734375 L 8 -2.625 C 8 -1.726562 7.675781 -1.066406 7.03125 -0.640625 C 6.382812 -0.210938 5.6875 0 4.9375 0 C 4.21875 0 3.523438 -0.210938 2.859375 -0.640625 C 2.203125 -1.066406 1.875 -1.726562 1.875 -2.625 Z M 1.875 -24.6875" stroke-linecap="round" />
</g>
		<g transform="matrix(1.33 0 0 1.33 -77.79 5.22)" clip-path="url(#CLIPPATH_20)"  >
<clipPath id="CLIPPATH_20" >
	<rect transform="matrix(1 0 0 1 43.8 -5.46)" x="-94" y="-33" rx="0" ry="0" width="188" height="66" />
</clipPath>
<path style="stroke: none; stroke-width: 1; stroke-dasharray: none; stroke-linecap: butt; stroke-dashoffset: 0; stroke-linejoin: miter; stroke-miterlimit: 4; fill: rgb(255,255,255); fill-rule: nonzero; opacity: 1;"  transform=" translate(-13.91, 13.39)" d="M 0.046875 -23.28125 C -0.203125 -24 -0.210938 -24.660156 0.015625 -25.265625 C 0.253906 -25.878906 0.648438 -26.375 1.203125 -26.75 C 1.753906 -27.125 2.335938 -27.3125 2.953125 -27.3125 C 3.597656 -27.3125 4.160156 -27.140625 4.640625 -26.796875 C 5.117188 -26.460938 5.484375 -26.007812 5.734375 -25.4375 L 13.953125 -8.796875 L 22.15625 -25.484375 C 22.476562 -26.128906 22.898438 -26.59375 23.421875 -26.875 C 23.941406 -27.164062 24.488281 -27.3125 25.0625 -27.3125 C 25.695312 -27.3125 26.273438 -27.140625 26.796875 -26.796875 C 27.316406 -26.460938 27.675781 -26 27.875 -25.40625 C 28.070312 -24.8125 27.972656 -24.125 27.578125 -23.34375 L 16.640625 -1.125 C 16.390625 -0.65625 16.007812 -0.265625 15.5 0.046875 C 15 0.367188 14.445312 0.53125 13.84375 0.53125 C 12.664062 0.53125 11.769531 0.015625 11.15625 -1.015625 Z M 0.046875 -23.28125" stroke-linecap="round" />
</g>
		<g transform="matrix(1.33 0 0 1.33 -52.73 -0.08)" clip-path="url(#CLIPPATH_21)"  >
<clipPath id="CLIPPATH_21" >
	<rect transform="matrix(1 0 0 1 25.04 -1.49)" x="-94" y="-33" rx="0" ry="0" width="188" height="66" />
</clipPath>
<path style="stroke: none; stroke-width: 1; stroke-dasharray: none; stroke-linecap: butt; stroke-dashoffset: 0; stroke-linejoin: miter; stroke-miterlimit: 4; fill: rgb(255,255,255); fill-rule: nonzero; opacity: 1;"  transform=" translate(-4.94, 17.36)" d="M 8.046875 -31.328125 C 8.046875 -30.441406 7.710938 -29.773438 7.046875 -29.328125 C 6.390625 -28.878906 5.6875 -28.65625 4.9375 -28.65625 C 4.144531 -28.65625 3.425781 -28.878906 2.78125 -29.328125 C 2.144531 -29.773438 1.828125 -30.441406 1.828125 -31.328125 L 1.828125 -32.03125 C 1.828125 -32.957031 2.144531 -33.632812 2.78125 -34.0625 C 3.425781 -34.5 4.144531 -34.71875 4.9375 -34.71875 C 5.6875 -34.71875 6.390625 -34.5 7.046875 -34.0625 C 7.710938 -33.632812 8.046875 -32.957031 8.046875 -32.03125 Z M 1.875 -24.6875 C 1.875 -25.539062 2.203125 -26.191406 2.859375 -26.640625 C 3.523438 -27.085938 4.21875 -27.3125 4.9375 -27.3125 C 5.6875 -27.3125 6.382812 -27.085938 7.03125 -26.640625 C 7.675781 -26.191406 8 -25.554688 8 -24.734375 L 8 -2.625 C 8 -1.726562 7.675781 -1.066406 7.03125 -0.640625 C 6.382812 -0.210938 5.6875 0 4.9375 0 C 4.21875 0 3.523438 -0.210938 2.859375 -0.640625 C 2.203125 -1.066406 1.875 -1.726562 1.875 -2.625 Z M 1.875 -24.6875" stroke-linecap="round" />
</g>
		<g transform="matrix(1.33 0 0 1.33 -25.4 0.29)" clip-path="url(#CLIPPATH_22)"  >
<clipPath id="CLIPPATH_22" >
	<rect transform="matrix(1 0 0 1 4.52 -1.76)" x="-94" y="-33" rx="0" ry="0" width="188" height="66" />
</clipPath>
<path style="stroke: none; stroke-width: 1; stroke-dasharray: none; stroke-linecap: butt; stroke-dashoffset: 0; stroke-linejoin: miter; stroke-miterlimit: 4; fill: rgb(255,255,255); fill-rule: nonzero; opacity: 1;"  transform=" translate(-16.66, 17.09)" d="M 15.828125 -34.171875 C 19.085938 -34.171875 21.929688 -33.457031 24.359375 -32.03125 C 26.796875 -30.601562 28.691406 -28.609375 30.046875 -26.046875 C 31.410156 -23.492188 32.09375 -20.5 32.09375 -17.0625 C 32.09375 -13.664062 31.410156 -10.675781 30.046875 -8.09375 C 28.691406 -5.519531 26.796875 -3.523438 24.359375 -2.109375 C 21.929688 -0.703125 19.085938 0 15.828125 0 L 4.78125 0 C 3.8125 0 2.976562 -0.3125 2.28125 -0.9375 C 1.582031 -1.5625 1.234375 -2.304688 1.234375 -3.171875 L 1.234375 -31.0625 C 1.234375 -31.925781 1.582031 -32.660156 2.28125 -33.265625 C 2.976562 -33.867188 3.8125 -34.171875 4.78125 -34.171875 Z M 15.828125 -5.3125 C 17.828125 -5.3125 19.585938 -5.800781 21.109375 -6.78125 C 22.628906 -7.769531 23.8125 -9.140625 24.65625 -10.890625 C 25.5 -12.640625 25.921875 -14.695312 25.921875 -17.0625 C 25.921875 -19.425781 25.5 -21.5 24.65625 -23.28125 C 23.8125 -25.070312 22.628906 -26.457031 21.109375 -27.4375 C 19.585938 -28.425781 17.828125 -28.921875 15.828125 -28.921875 L 7.34375 -28.921875 L 7.34375 -5.3125 Z M 15.828125 -5.3125" stroke-linecap="round" />
</g>
		<g transform="matrix(1.33 0 0 1.33 16.06 4.87)" clip-path="url(#CLIPPATH_23)"  >
<clipPath id="CLIPPATH_23" >
	<rect transform="matrix(1 0 0 1 -26.58 -5.19)" x="-94" y="-33" rx="0" ry="0" width="188" height="66" />
</clipPath>
<path style="stroke: none; stroke-width: 1; stroke-dasharray: none; stroke-linecap: butt; stroke-dashoffset: 0; stroke-linejoin: miter; stroke-miterlimit: 4; fill: rgb(255,255,255); fill-rule: nonzero; opacity: 1;"  transform=" translate(-14.55, 13.66)" d="M 24.953125 -27.3125 C 25.878906 -27.3125 26.617188 -27.050781 27.171875 -26.53125 C 27.734375 -26.007812 28.015625 -25.335938 28.015625 -24.515625 L 28.015625 -2.796875 C 28.015625 -1.972656 27.734375 -1.300781 27.171875 -0.78125 C 26.617188 -0.257812 25.878906 0 24.953125 0 C 24.054688 0 23.359375 -0.203125 22.859375 -0.609375 C 22.359375 -1.023438 22.054688 -1.570312 21.953125 -2.25 C 20.734375 -1.289062 19.367188 -0.585938 17.859375 -0.140625 C 16.359375 0.304688 14.929688 0.53125 13.578125 0.53125 C 11.003906 0.53125 8.773438 -0.0546875 6.890625 -1.234375 C 5.015625 -2.410156 3.578125 -4.070312 2.578125 -6.21875 C 1.578125 -8.363281 1.078125 -10.867188 1.078125 -13.734375 C 1.078125 -16.523438 1.628906 -18.972656 2.734375 -21.078125 C 3.847656 -23.191406 5.394531 -24.847656 7.375 -26.046875 C 9.363281 -27.242188 11.660156 -27.84375 14.265625 -27.84375 C 15.410156 -27.84375 16.679688 -27.628906 18.078125 -27.203125 C 19.472656 -26.773438 20.765625 -26.097656 21.953125 -25.171875 C 22.085938 -25.804688 22.40625 -26.320312 22.90625 -26.71875 C 23.40625 -27.113281 24.085938 -27.3125 24.953125 -27.3125 Z M 14.21875 -4.875 C 15.789062 -4.875 17.3125 -5.222656 18.78125 -5.921875 C 20.25 -6.617188 21.285156 -7.648438 21.890625 -9.015625 L 21.890625 -18.296875 C 21.210938 -19.617188 20.191406 -20.632812 18.828125 -21.34375 C 17.472656 -22.0625 16.097656 -22.421875 14.703125 -22.421875 C 12.453125 -22.421875 10.632812 -21.597656 9.25 -19.953125 C 7.875 -18.304688 7.1875 -16.21875 7.1875 -13.6875 C 7.1875 -11.039062 7.828125 -8.910156 9.109375 -7.296875 C 10.398438 -5.679688 12.101562 -4.875 14.21875 -4.875 Z M 14.21875 -4.875" stroke-linecap="round" />
</g>
		<g transform="matrix(1.33 0 0 1.33 50.42 0.28)" clip-path="url(#CLIPPATH_24)"  >
<clipPath id="CLIPPATH_24" >
	<rect transform="matrix(1 0 0 1 -52.34 -1.75)" x="-94" y="-33" rx="0" ry="0" width="188" height="66" />
</clipPath>
<path style="stroke: none; stroke-width: 1; stroke-dasharray: none; stroke-linecap: butt; stroke-dashoffset: 0; stroke-linejoin: miter; stroke-miterlimit: 4; fill: rgb(255,255,255); fill-rule: nonzero; opacity: 1;"  transform=" translate(-9.3, 17.09)" d="M 14.75 -5.09375 C 15.570312 -5.5625 16.3125 -5.722656 16.96875 -5.578125 C 17.632812 -5.429688 18.171875 -5.117188 18.578125 -4.640625 C 18.992188 -4.160156 19.203125 -3.597656 19.203125 -2.953125 C 19.203125 -2.484375 19.054688 -2.015625 18.765625 -1.546875 C 18.484375 -1.085938 18.039062 -0.695312 17.4375 -0.375 C 16.65625 0.0507812 15.941406 0.304688 15.296875 0.390625 C 14.648438 0.484375 13.894531 0.53125 13.03125 0.53125 C 10.707031 0.53125 8.921875 0.0507812 7.671875 -0.90625 C 6.421875 -1.875 5.5625 -3.125 5.09375 -4.65625 C 4.632812 -6.195312 4.40625 -7.828125 4.40625 -9.546875 L 4.40625 -22.21875 L 2.359375 -22.21875 C 1.359375 -22.21875 0.613281 -22.484375 0.125 -23.015625 C -0.351562 -23.554688 -0.59375 -24.128906 -0.59375 -24.734375 C -0.59375 -25.378906 -0.34375 -25.96875 0.15625 -26.5 C 0.65625 -27.039062 1.390625 -27.3125 2.359375 -27.3125 L 4.40625 -27.3125 L 4.40625 -31.921875 C 4.40625 -32.859375 4.707031 -33.554688 5.3125 -34.015625 C 5.914062 -34.484375 6.613281 -34.71875 7.40625 -34.71875 C 8.15625 -34.71875 8.851562 -34.484375 9.5 -34.015625 C 10.144531 -33.554688 10.46875 -32.859375 10.46875 -31.921875 L 10.46875 -27.3125 L 14.640625 -27.3125 C 15.578125 -27.3125 16.296875 -27.039062 16.796875 -26.5 C 17.296875 -25.96875 17.546875 -25.378906 17.546875 -24.734375 C 17.546875 -24.085938 17.296875 -23.503906 16.796875 -22.984375 C 16.296875 -22.472656 15.578125 -22.21875 14.640625 -22.21875 L 10.46875 -22.21875 L 10.46875 -9.546875 C 10.46875 -8.765625 10.519531 -8.003906 10.625 -7.265625 C 10.726562 -6.535156 10.96875 -5.925781 11.34375 -5.4375 C 11.71875 -4.957031 12.28125 -4.71875 13.03125 -4.71875 C 13.320312 -4.71875 13.632812 -4.757812 13.96875 -4.84375 C 14.3125 -4.9375 14.570312 -5.019531 14.75 -5.09375 Z M 14.75 -5.09375" stroke-linecap="round" />
</g>
		<g transform="matrix(1.33 0 0 1.33 82.22 4.87)" clip-path="url(#CLIPPATH_25)"  >
<clipPath id="CLIPPATH_25" >
	<rect transform="matrix(1 0 0 1 -76.2 -5.19)" x="-94" y="-33" rx="0" ry="0" width="188" height="66" />
</clipPath>
<path style="stroke: none; stroke-width: 1; stroke-dasharray: none; stroke-linecap: butt; stroke-dashoffset: 0; stroke-linejoin: miter; stroke-miterlimit: 4; fill: rgb(255,255,255); fill-rule: nonzero; opacity: 1;"  transform=" translate(-14.55, 13.66)" d="M 24.953125 -27.3125 C 25.878906 -27.3125 26.617188 -27.050781 27.171875 -26.53125 C 27.734375 -26.007812 28.015625 -25.335938 28.015625 -24.515625 L 28.015625 -2.796875 C 28.015625 -1.972656 27.734375 -1.300781 27.171875 -0.78125 C 26.617188 -0.257812 25.878906 0 24.953125 0 C 24.054688 0 23.359375 -0.203125 22.859375 -0.609375 C 22.359375 -1.023438 22.054688 -1.570312 21.953125 -2.25 C 20.734375 -1.289062 19.367188 -0.585938 17.859375 -0.140625 C 16.359375 0.304688 14.929688 0.53125 13.578125 0.53125 C 11.003906 0.53125 8.773438 -0.0546875 6.890625 -1.234375 C 5.015625 -2.410156 3.578125 -4.070312 2.578125 -6.21875 C 1.578125 -8.363281 1.078125 -10.867188 1.078125 -13.734375 C 1.078125 -16.523438 1.628906 -18.972656 2.734375 -21.078125 C 3.847656 -23.191406 5.394531 -24.847656 7.375 -26.046875 C 9.363281 -27.242188 11.660156 -27.84375 14.265625 -27.84375 C 15.410156 -27.84375 16.679688 -27.628906 18.078125 -27.203125 C 19.472656 -26.773438 20.765625 -26.097656 21.953125 -25.171875 C 22.085938 -25.804688 22.40625 -26.320312 22.90625 -26.71875 C 23.40625 -27.113281 24.085938 -27.3125 24.953125 -27.3125 Z M 14.21875 -4.875 C 15.789062 -4.875 17.3125 -5.222656 18.78125 -5.921875 C 20.25 -6.617188 21.285156 -7.648438 21.890625 -9.015625 L 21.890625 -18.296875 C 21.210938 -19.617188 20.191406 -20.632812 18.828125 -21.34375 C 17.472656 -22.0625 16.097656 -22.421875 14.703125 -22.421875 C 12.453125 -22.421875 10.632812 -21.597656 9.25 -19.953125 C 7.875 -18.304688 7.1875 -16.21875 7.1875 -13.6875 C 7.1875 -11.039062 7.828125 -8.910156 9.109375 -7.296875 C 10.398438 -5.679688 12.101562 -4.875 14.21875 -4.875 Z M 14.21875 -4.875" stroke-linecap="round" />
</g>
</g>
</g>
</svg>